Coordinates
version=1
nRows=24
nColumns=22
inDegrees=yes

Units are S.I. units (second, meters, Newtons, ...)
If the header above contains a line with 'inDegrees', this indicates whether rotational values are in degrees (yes) or radians (no).

endheader
time	pelvis_tilt	pelvis_list	pelvis_rotation	pelvis_tx	pelvis_ty	pelvis_tz	hip_flexion_r	hip_adduction_r	hip_rotation_r	knee_angle_r	ankle_angle_r	subtalar_angle_r	hip_flexion_l	hip_adduction_l	hip_rotation_l	knee_angle_l	ankle_angle_l	subtalar_angle_l	lumbar_extension	lumbar_bending	lumbar_rotation
      5.82000000	    -13.29397318	     -2.99408616	     -2.41520366	      0.63292593	      0.97559876	      0.43564964	     10.46943218	      3.95372400	     -0.19622916	    -34.19943459	     13.19896217	      5.79424685	     31.42756540	     -1.81640644	     -3.70525975	    -19.11231244	      8.73522304	      1.09367177	      4.58017739	      3.68086982	      4.95243581
      5.83000000	    -13.34955898	     -2.80484666	     -2.38840710	      0.63771730	      0.97572538	      0.43432476	     10.86507169	      3.59555352	     -0.36755087	    -35.19480921	     12.69090917	      6.07318371	     31.20560773	     -1.52973006	     -3.77058545	    -19.14540629	      8.96556458	      0.82769442	      4.67284151	      3.42709805	      4.86844375
      5.84000000	    -13.39187539	     -2.62846038	     -2.37131899	      0.64243918	      0.97583652	      0.43304800	     11.25055633	      3.25232430	     -0.51582871	    -36.19006909	     12.19547925	      6.33024369	     30.98465670	     -1.26128761	     -3.83040371	    -19.20136360	      9.20965997	      0.56107319	      4.74838311	      3.19256100	      4.79201619
      5.85000000	    -13.42554100	     -2.46276220	     -2.36312579	      0.64707837	      0.97593391	      0.43182684	     11.63123925	      2.92413604	     -0.63868821	    -37.18571592	     11.72288190	      6.56575192	     30.76632064	     -1.00948227	     -3.88968508	    -19.26981890	      9.45780093	      0.28332821	      4.81151335	      2.97030308	      4.73287951
      5.86000000	    -13.44848643	     -2.30774147	     -2.36314052	      0.65163861	      0.97603138	      0.43066122	     12.00117916	      2.61476308	     -0.72743909	    -38.17468329	     11.26422733	      6.76438897	     30.54438424	     -0.77284121	     -3.94580189	    -19.34435244	      9.70689921	      0.00360830	      4.86039777	      2.76188247	      4.68528760
      5.87000000	    -13.46165088	     -2.16540371	     -2.37323986	      0.65612552	      0.97614000	      0.42956738	     12.35989823	      2.32702945	     -0.78930114	    -39.15305114	     10.80971379	      6.91620775	     30.31393912	     -0.55504290	     -4.00189442	    -19.41472849	      9.96073054	     -0.27604963	      4.89779937	      2.56715217	      4.64876451
      5.88000000	    -13.46443768	     -2.03499063	     -2.38855183	      0.66053349	      0.97626609	      0.42852405	     12.70432003	      2.06125247	     -0.82131270	    -40.11506406	     10.35266198	      7.00729694	     30.07510909	     -0.35142821	     -4.05501299	    -19.47979256	     10.21807597	     -0.53970684	      4.92315801	      2.38927235	      4.61805145
      5.89000000	    -13.47024593	     -1.92592389	     -2.41194328	      0.66484602	      0.97638688	      0.42754436	     13.05261204	      1.82347728	     -0.84743011	    -41.06577681	      9.90936944	      7.03059164	     29.84787841	     -0.17429398	     -4.10447484	    -19.54982871	     10.49198026	     -0.88514306	      4.95025834	      2.23740182	      4.59763628
      5.90000000	    -13.45915662	     -1.80724974	     -2.44526390	      0.66909452	      0.97656144	      0.42661972	     13.38148163	      1.58478830	     -0.84078246	    -41.99843296	      9.45520280	      6.99675450	     29.59283659	      0.00844684	     -4.15573989	    -19.59271424	     10.73906860	     -1.05471509	      4.95902941	      2.07592730	      4.57862915
      5.91000000	    -13.46221172	     -1.70128389	     -2.48981365	      0.67323256	      0.97670765	      0.42574240	     13.73362088	      1.35918810	     -0.84621550	    -42.92658801	      9.05674865	      6.86298808	     29.36546933	      0.17207938	     -4.21030292	    -19.64717763	     10.99463766	     -1.29627461	      4.98185179	      1.93351187	      4.58547185
      5.92000000	    -13.46408920	     -1.59795618	     -2.53639863	      0.67729016	      0.97686791	      0.42490194	     14.08175479	      1.14519341	     -0.82987187	    -43.82667734	      8.70147598	      6.69931552	     29.13785713	      0.33207732	     -4.25676512	    -19.69285490	     11.25187214	     -1.48848274	      5.00399377	      1.79923468	      4.56083841
      5.93000000	    -13.47295131	     -1.49309742	     -2.59154825	      0.68125755	      0.97701192	      0.42409708	     14.44386762	      0.92699155	     -0.82684959	    -44.70587389	      8.44737332	      6.47880592	     28.92142764	      0.48915983	     -4.30270063	    -19.73596271	     11.50568545	     -1.67946235	      5.03474242	      1.66854131	      4.54094297
      5.94000000	    -13.48003029	     -1.39279018	     -2.64145774	      0.68513315	      0.97715249	      0.42328071	     14.80315064	      0.70759020	     -0.84129019	    -45.54183293	      8.31782033	      6.22711125	     28.70934490	      0.64635027	     -4.33772265	    -19.77836402	     11.75954472	     -1.85869628	      5.06050552	      1.55089485	      4.51583085
      5.95000000	    -13.49030440	     -1.30623156	     -2.69210786	      0.68892840	      0.97728350	      0.42247129	     15.16231556	      0.49378070	     -0.89048862	    -46.31273171	      8.28909819	      5.84599494	     28.50412723	      0.79031195	     -4.36187346	    -19.81930103	     12.01301421	     -2.09641555	      5.08818055	      1.45749339	      4.48683254
      5.96000000	    -13.47747620	     -1.18942492	     -2.73792245	      0.69267188	      0.97744618	      0.42165453	     15.49111097	      0.23542572	     -0.95487004	    -47.00690852	      8.50343300	      5.62341808	     28.26190941	      0.97037084	     -4.38130450	    -19.82828813	     12.24626420	     -2.21535771	      5.08997277	      1.33176022	      4.43313868
      5.97000000	    -13.46363822	     -1.07221244	     -2.78393249	      0.69634239	      0.97761093	      0.42082602	     15.81230818	     -0.03938418	     -1.06184613	    -47.59725640	      8.84775473	      5.29636189	     28.01570331	      1.15358446	     -4.39627269	    -19.82355860	     12.46392867	     -2.38966521	      5.08974439	      1.21490137	      4.38080749
      5.98000000	    -13.43777527	     -0.96923348	     -2.82676739	      0.69996561	      0.97780343	      0.42000192	     16.10343916	     -0.31895613	     -1.23136791	    -48.05453202	      9.30915727	      4.82360830	     27.74685364	      1.32605916	     -4.40208065	    -19.79508464	     12.71208650	     -2.62293324	      5.07461588	      1.11854149	      4.32407398
      5.99000000	    -13.41059187	     -0.86994950	     -2.85456329	      0.70348709	      0.97800564	      0.41917894	     16.38020240	     -0.60814746	     -1.44049490	    -48.37749811	      9.98505989	      4.45173493	     27.48222778	      1.50245135	     -4.38396377	    -19.76494279	     12.90104591	     -2.76500764	      5.05152316	      1.02629525	      4.23241506
      6.00000000	    -13.36914093	     -0.79057162	     -2.89078477	      0.70696091	      0.97825475	      0.41839682	     16.62084791	     -0.87615957	     -1.66664678	    -48.54195366	     10.73130736	      3.87163773	     27.18597536	      1.65720228	     -4.35704687	    -19.70147911	     13.12249273	     -3.00138457	      5.01095315	      0.96388149	      4.14117277
      6.01000000	    -13.34738052	     -0.71792912	     -2.89829937	      0.71034627	      0.97848037	      0.41759041	     16.86786967	     -1.16061632	     -1.96765238	    -48.56259873	     11.59510408	      3.49374065	     26.92384858	      1.81413063	     -4.32296922	    -19.64873315	     13.29424261	     -3.13666536	      4.99144015	      0.90684923	      4.01805261
      6.02000000	    -13.30953840	     -0.67279527	     -2.92355083	      0.71369839	      0.97876835	      0.41686326	     17.07284183	     -1.39591532	     -2.24894380	    -48.41701458	     12.47618014	      2.95339438	     26.61960838	      1.93862651	     -4.26400626	    -19.55014811	     13.47175528	     -3.37576019	      4.95417651	      0.88439389	      3.90691471
      6.03000000	    -13.28139193	     -0.65204084	     -2.94144120	      0.71696584	      0.97904318	      0.41616822	     17.27334348	     -1.60387086	     -2.56250392	    -48.12870439	     13.37096295	      2.50172581	     26.34230440	      2.03591015	     -4.20600559	    -19.47661847	     13.64331363	     -3.59592606	      4.92514642	      0.88799199	      3.80409027
      6.04000000	    -13.27291011	     -0.63769346	     -2.94503650	      0.72014738	      0.97929289	      0.41547644	     17.48316960	     -1.79908419	     -2.89284818	    -47.70966491	     14.25860386	      2.15703115	     26.09081279	      2.13015953	     -4.13738297	    -19.39964679	     13.80841675	     -3.77417676	      4.91722188	      0.90040229	      3.67843503
      6.05000000	    -13.26292046	     -0.65469313	     -2.95953574	      0.72325113	      0.97956493	      0.41486767	     17.67138099	     -1.93199506	     -3.20329263	    -47.14617735	     15.10116855	      1.76154267	     25.84115718	      2.18323972	     -4.06162210	    -19.32528525	     13.96702439	     -3.99931146	      4.90379717	      0.94449052	      3.57794250
